name Walk10.mot
datacolumns 19
datarows 25
range 1.97800000 2.00200000
endheader

                time	   L_ground_force_vx	   L_ground_force_vy	   L_ground_force_vz	   L_ground_force_px	   L_ground_force_py	   L_ground_force_pz	   R_ground_force_vx	   R_ground_force_vy	   R_ground_force_vz	   R_ground_force_px	   R_ground_force_py	   R_ground_force_pz	   L_ground_torque_x	   L_ground_torque_y	   L_ground_torque_z	   R_ground_torque_x	   R_ground_torque_y	   R_ground_torque_z	
          1.97800000	          0.00001900	          0.01558101	         -0.00445625	         -0.00008847	          0.00000000	         -0.00005303	        -39.40033345	        868.14911233	        -59.36578826	          0.49040886	          0.00000000	          0.14902921	          0.00000000	         -0.00009854	          0.00000000	          0.00000000	          5.87070222	          0.00000000	
          1.97900000	         -0.00102521	          0.01255618	         -0.00413032	         -0.00008326	          0.00000000	         -0.00005023	        -38.99098920	        866.13900852	        -59.14102813	          0.49074428	          0.00000000	          0.14912688	          0.00000000	         -0.00009662	          0.00000000	          0.00000000	          5.79973029	          0.00000000	
          1.98000000	         -0.00197677	          0.00974109	         -0.00381650	         -0.00007818	          0.00000000	         -0.00004748	        -38.58653994	        864.16319329	        -58.91393952	          0.49107775	          0.00000000	          0.14922318	          0.00000000	         -0.00009451	          0.00000000	          0.00000000	          5.72958979	          0.00000000	
          1.98100000	         -0.00283995	          0.00712854	         -0.00351494	         -0.00007324	          0.00000000	         -0.00004478	        -38.18682144	        862.22182155	        -58.68473098	          0.49140926	          0.00000000	          0.14931812	          0.00000000	         -0.00009221	          0.00000000	          0.00000000	          5.66024428	          0.00000000	
          1.98200000	         -0.00361901	          0.00471118	         -0.00322574	         -0.00006844	          0.00000000	         -0.00004215	        -37.79167084	        860.31505950	        -58.45361696	          0.49173878	          0.00000000	          0.14941169	          0.00000000	         -0.00008977	          0.00000000	          0.00000000	          5.59165819	          0.00000000	
          1.98300000	         -0.00431815	          0.00248155	         -0.00294894	         -0.00006379	          0.00000000	         -0.00003958	        -37.40092726	        858.44308564	        -58.22081782	          0.49206630	          0.00000000	          0.14950389	          0.00000000	         -0.00008719	          0.00000000	          0.00000000	          5.52379691	          0.00000000	
          1.98400000	         -0.00494153	          0.00043212	         -0.00268453	         -0.00005930	          0.00000000	         -0.00003707	        -37.01443217	        856.60609142	        -57.98656003	          0.49239179	          0.00000000	          0.14959474	          0.00000000	         -0.00008450	          0.00000000	          0.00000000	          5.45662683	          0.00000000	
          1.98500000	         -0.00549324	         -0.00144469	         -0.00243246	         -0.00005496	          0.00000000	         -0.00003464	        -36.63202941	        854.80428133	        -57.75107605	          0.49271524	          0.00000000	          0.14968423	          0.00000000	         -0.00008172	          0.00000000	          0.00000000	          5.39011534	          0.00000000	
          1.98600000	         -0.00597728	         -0.00315647	         -0.00219262	         -0.00005078	          0.00000000	         -0.00003229	        -36.25356498	        853.03787255	        -57.51460391	          0.49303662	          0.00000000	          0.14977237	          0.00000000	         -0.00007887	          0.00000000	          0.00000000	          5.32423089	          0.00000000	
          1.98700000	         -0.00639758	         -0.00471078	         -0.00196490	         -0.00004677	          0.00000000	         -0.00003001	        -35.87888679	        851.30709371	        -57.27738625	          0.49335592	          0.00000000	          0.14985917	          0.00000000	         -0.00007596	          0.00000000	          0.00000000	          5.25894291	          0.00000000	
          1.98800000	         -0.00675797	         -0.00611514	         -0.00174911	         -0.00004292	          0.00000000	         -0.00002782	        -35.50784427	        849.61218272	        -57.03966900	          0.49367310	          0.00000000	          0.14994464	          0.00000000	         -0.00007302	          0.00000000	          0.00000000	          5.19422184	          0.00000000	
          1.98900000	         -0.00706218	         -0.00737698	         -0.00154506	         -0.00003924	          0.00000000	         -0.00002570	        -35.14028795	        847.95338395	        -56.80169997	          0.49398813	          0.00000000	          0.15002878	          0.00000000	         -0.00007005	          0.00000000	          0.00000000	          5.13003896	          0.00000000	
          1.99000000	         -0.00731383	         -0.00850366	         -0.00135251	         -0.00003572	          0.00000000	         -0.00002367	        -34.77606919	        846.33094490	        -56.56372753	          0.49430100	          0.00000000	          0.15011162	          0.00000000	         -0.00006706	          0.00000000	          0.00000000	          5.06636614	          0.00000000	
          1.99100000	         -0.00751646	         -0.00950241	         -0.00117123	         -0.00003237	          0.00000000	         -0.00002173	        -34.41504002	        844.74511283	        -56.32599974	          0.49461169	          0.00000000	          0.15019315	          0.00000000	         -0.00006408	          0.00000000	          0.00000000	          5.00317563	          0.00000000	
          1.99200000	         -0.00767345	         -0.01038034	         -0.00100094	         -0.00002917	          0.00000000	         -0.00001986	        -34.05705311	        843.19613146	        -56.08876361	          0.49492017	          0.00000000	          0.15027340	          0.00000000	         -0.00006111	          0.00000000	          0.00000000	          4.94043982	          0.00000000	
          1.99300000	         -0.00778810	         -0.01114439	         -0.00084134	         -0.00002614	          0.00000000	         -0.00001808	        -33.70196207	        841.68423813	        -55.85226453	          0.49522643	          0.00000000	          0.15035236	          0.00000000	         -0.00005816	          0.00000000	          0.00000000	          4.87813115	          0.00000000	
          1.99400000	         -0.00786357	         -0.01180137	         -0.00069214	         -0.00002327	          0.00000000	         -0.00001638	        -33.34962187	        840.20966168	        -55.61674574	          0.49553045	          0.00000000	          0.15043006	          0.00000000	         -0.00005524	          0.00000000	          0.00000000	          4.81622204	          0.00000000	
          1.99500000	         -0.00790291	         -0.01235790	         -0.00055300	         -0.00002056	          0.00000000	         -0.00001477	        -32.99988969	        838.77262114	        -55.38244758	          0.49583224	          0.00000000	          0.15050649	          0.00000000	         -0.00005236	          0.00000000	          0.00000000	          4.75468496	          0.00000000	
          1.99600000	         -0.00790904	         -0.01282041	         -0.00042361	         -0.00001800	          0.00000000	         -0.00001323	        -32.65262576	        837.37332475	        -55.14960676	          0.49613179	          0.00000000	          0.15058167	          0.00000000	         -0.00004952	          0.00000000	          0.00000000	          4.69349235	          0.00000000	
          1.99700000	         -0.00788477	         -0.01319515	         -0.00030361	         -0.00001558	          0.00000000	         -0.00001178	        -32.30769413	        836.01196915	        -54.91845555	          0.49642909	          0.00000000	          0.15065561	          0.00000000	         -0.00004674	          0.00000000	          0.00000000	          4.63261674	          0.00000000	
          1.99800000	         -0.00783276	         -0.01348817	         -0.00019267	         -0.00001332	          0.00000000	         -0.00001040	        -31.96496303	        834.68873800	        -54.68922105	          0.49672414	          0.00000000	          0.15072833	          0.00000000	         -0.00004402	          0.00000000	          0.00000000	          4.57203078	          0.00000000	
          1.99900000	         -0.00775558	         -0.01370531	         -0.00009044	         -0.00001119	          0.00000000	         -0.00000911	        -31.62430485	        833.40380028	        -54.46212460	          0.49701694	          0.00000000	          0.15079985	          0.00000000	         -0.00004137	          0.00000000	          0.00000000	          4.51170751	          0.00000000	
          2.00000000	         -0.00765565	         -0.01385219	          0.00000345	         -0.00000921	          0.00000000	         -0.00000789	        -31.28559591	        832.15730824	        -54.23738138	          0.49730749	          0.00000000	          0.15087019	          0.00000000	         -0.00003878	          0.00000000	          0.00000000	          4.45162058	          0.00000000	
          2.00100000	         -0.00753529	         -0.01393424	          0.00008933	         -0.00000736	          0.00000000	         -0.00000674	        -30.94871605	        830.94939536	        -54.01520009	          0.49759580	          0.00000000	          0.15093937	          0.00000000	         -0.00003627	          0.00000000	          0.00000000	          4.39174455	          0.00000000	
          2.00200000	         -0.00739669	         -0.01395666	          0.00016758	         -0.00000564	          0.00000000	         -0.00000566	        -30.61354840	        829.78017491	        -53.79578274	          0.49788187	          0.00000000	          0.15100743	          0.00000000	         -0.00003384	          0.00000000	          0.00000000	          4.33205509	          0.00000000	
